<svg id="Component_32_1" data-name="Component 32 – 1" xmlns="http://www.w3.org/2000/svg" width="300.926" height="253" viewBox="0 0 666.926 333">
  <g id="Group_58" data-name="Group 58" transform="translate(-310.463 -1126)">
    <rect id="Rectangle_1078" data-name="Rectangle 1078" width="25" height="9" transform="translate(310.463 1450)" fill="#f3060d"/>
    <rect id="Rectangle_1079" data-name="Rectangle 1079" width="25" height="9" transform="translate(344.463 1450)" fill="rgba(203,164,164,0.35)"/>
  </g>
  <g id="Group_57" data-name="Group 57" transform="translate(-309.074 -1061)">
    <path id="Icon_material-textsms" data-name="Icon material-textsms" d="M357.888,2.31,40.345,3.521C19.805,3.521,3.187,15.975,3.187,31.2L3,280.271l74.69-55.35H339.1c20.54,0,37.345-12.454,37.345-27.675V16.392C376.448,1.17,378.428,2.31,357.888,2.31Z" transform="translate(352.5 1079.709)" fill="#f3060d"/>
    <rect id="Rectangle_1081" data-name="Rectangle 1081" width="649" height="245" transform="translate(327 1061)" fill="#f3060d"/>
  </g>
  <g id="Group_56" data-name="Group 56" transform="translate(-399.766 -1366)">
    <path id="Path_97" data-name="Path 97" d="M458.111,1547.92v123.99l125.005-121.38Z" fill="none"/>
  </g>
  <g id="target" transform="translate(55.153 64.086)">
    <g id="Group_59" data-name="Group 59" transform="translate(3.192)">
      <path id="Path_98" data-name="Path 98" d="M82.949,6.676H78.882V2.5A2.44,2.44,0,1,0,74,2.5V8.11l-9.553,9.8a36.247,36.247,0,0,0-50.442,1.711,38.594,38.594,0,0,0,0,53.586c.28.288.566.568.854.846l-6.9,7.076a2.55,2.55,0,0,0,0,3.54,2.4,2.4,0,0,0,3.45,0l7.232-7.42a36.2,36.2,0,0,0,43.041-.071l7.3,7.491a2.4,2.4,0,0,0,3.45,0,2.549,2.549,0,0,0,0-3.54l-6.976-7.158c.259-.251.515-.5.768-.764A38.613,38.613,0,0,0,67.9,21.452l9.521-9.769h5.528a2.5,2.5,0,0,0,0-5.006Zm-10.78,39.74C72.169,64.549,57.792,79.3,40.12,79.3S8.071,64.549,8.071,46.416,22.448,13.531,40.12,13.531a31.44,31.44,0,0,1,20.86,7.94L58.033,24.5A27.47,27.47,0,0,0,40.1,17.816c-15.451,0-28.021,12.9-28.021,28.751S24.648,75.319,40.1,75.319s28.021-12.9,28.021-28.751a29.069,29.069,0,0,0-6.625-18.543l2.936-3.013A33.245,33.245,0,0,1,72.169,46.416ZM38.4,48.186a2.4,2.4,0,0,0,3.45,0l3.08-3.16a5.219,5.219,0,0,1,.189,1.39,5,5,0,1,1-4.994-5.124,4.864,4.864,0,0,1,1.355.193L38.4,44.646A2.549,2.549,0,0,0,38.4,48.186Zm1.725-11.9a10.133,10.133,0,1,0,9.873,10.13,10.263,10.263,0,0,0-1.386-5.168l3.118-3.2a14.783,14.783,0,0,1,2.628,8.446A14.439,14.439,0,0,1,40.12,61.1a14.609,14.609,0,0,1,0-29.209,13.907,13.907,0,0,1,8.141,2.632l-3.1,3.186A9.619,9.619,0,0,0,40.12,36.286Zm11.629-5.342A18.7,18.7,0,0,0,40.12,26.884a19.617,19.617,0,0,0,0,39.222A19.388,19.388,0,0,0,59.232,46.495a19.839,19.839,0,0,0-4.023-12.022l2.822-2.9a24.014,24.014,0,0,1,5.208,14.99c0,13.093-10.381,23.745-23.141,23.745S16.957,59.661,16.957,46.567,27.338,22.822,40.1,22.822a22.669,22.669,0,0,1,14.47,5.229Z" transform="translate(-3.192)" fill="#fff"/>
    </g>
  </g>
  <text id="Mission_Statement" data-name="Mission Statement" transform="translate(190.537 59)" fill="#fff" font-size="23" font-family="Helvetica" text-decoration="underline"><tspan x="0" y="0">Mission Statement</tspan></text>
  <g id="target_1_" data-name="target (1)" transform="translate(113.535 143)">
    <g id="Group_68" data-name="Group 68" transform="translate(0.002 18.508)">
      <g id="Group_67" data-name="Group 67">
        <path id="Path_103" data-name="Path 103" d="M63.64,150.619a1.971,1.971,0,0,0-2.711-.652A37.466,37.466,0,0,1,9.458,98.418,1.971,1.971,0,0,0,6.1,96.354,41.585,41.585,0,0,0,.256,122.612a41.353,41.353,0,0,0,41.1,36.781,41.561,41.561,0,0,0,21.635-6.064A1.971,1.971,0,0,0,63.64,150.619Z" transform="translate(-0.002 -95.415)" fill="rgba(241,223,223,0.02)"/>
      </g>
    </g>
    <g id="Group_70" data-name="Group 70" transform="translate(11.527 11.525)">
      <g id="Group_69" data-name="Group 69">
        <path id="Path_104" data-name="Path 104" d="M61.858,59.04a1.994,1.994,0,1,0-1.425,3.407,2,2,0,0,0,1.416-.6l.008-.009A1.962,1.962,0,0,0,61.858,59.04Z" transform="translate(-58.464 -58.465)" fill="rgba(241,223,223,0.02)"/>
      </g>
    </g>
    <g id="Group_72" data-name="Group 72" transform="translate(19.754 0)">
      <g id="Group_71" data-name="Group 71">
        <path id="Path_105" data-name="Path 105" d="M156.2,34A41.41,41.41,0,0,0,93.168,6.506a1.971,1.971,0,0,0,2.126,3.32A37.66,37.66,0,0,1,141.95,14.91a37.254,37.254,0,0,1,7.86,41.452,1.971,1.971,0,1,0,3.615,1.574A41.341,41.341,0,0,0,156.2,34Z" transform="translate(-92.26 0)" fill="rgba(241,223,223,0.02)"/>
      </g>
    </g>
    <g id="Group_74" data-name="Group 74" transform="translate(74.309 61.27)">
      <g id="Group_73" data-name="Group 73">
        <path id="Path_106" data-name="Path 106" d="M368.262,313.054a1.974,1.974,0,0,0-2.736.519l-.03.045a1.971,1.971,0,0,0,3.289,2.175l.006-.009A1.969,1.969,0,0,0,368.262,313.054Z" transform="translate(-365.176 -312.714)" fill="rgba(241,223,223,0.02)"/>
      </g>
    </g>
    <g id="Group_76" data-name="Group 76" transform="translate(9.082 9.08)">
      <g id="Group_75" data-name="Group 75">
        <path id="Path_107" data-name="Path 107" d="M101.234,55.517a32.341,32.341,0,1,0-13.178,53.711,1.971,1.971,0,0,0-1.177-3.763A28.386,28.386,0,1,1,105.546,86.61a1.971,1.971,0,1,0,3.774,1.139A32.3,32.3,0,0,0,101.234,55.517Z" transform="translate(-46.061 -46.063)" fill="rgba(241,223,223,0.02)"/>
      </g>
    </g>
    <g id="Group_78" data-name="Group 78" transform="translate(24.413 20.695)">
      <g id="Group_77" data-name="Group 77">
        <path id="Path_108" data-name="Path 108" d="M186.033,168.741l-10.87-10.9a1.971,1.971,0,0,0-1.4-.579H160.052l-14.38-14.38h2.82a1.971,1.971,0,1,0,0-3.943h-3.483a20.12,20.12,0,1,0-6.067,6.067v3.483a1.971,1.971,0,0,0,3.943,0v-2.82l14.38,14.38v13.715a1.971,1.971,0,0,0,.579,1.4l10.9,10.87a5.343,5.343,0,0,0,3.792,1.6,5.5,5.5,0,0,0,2.1-.424,5.334,5.334,0,0,0,3.347-4.992l.011-4.218,4.218-.011a5.417,5.417,0,0,0,3.82-9.243ZM128.09,144.254a16.164,16.164,0,1,1,16.164-16.164A16.182,16.182,0,0,1,128.09,144.254ZM174.04,182.2a1.474,1.474,0,0,1-2.516,1.04L161.206,172.95v-8.955l4.027,4.027h0l8.819,8.819Zm9.52-9.072a1.425,1.425,0,0,1-1.359.911l-5.36.014-12.847-12.847h8.955l10.292,10.318A1.425,1.425,0,0,1,183.56,173.129Z" transform="translate(-107.983 -107.983)" fill="rgba(241,223,223,0.02)"/>
      </g>
    </g>
    <g id="Group_80" data-name="Group 80" transform="translate(36.359 29.677)">
      <g id="Group_79" data-name="Group 79">
        <path id="Path_109" data-name="Path 109" d="M184.41,161.291a1.971,1.971,0,1,1,2.335-1.937,1.971,1.971,0,0,0,3.943,0,5.939,5.939,0,0,0-4.307-5.581v-.1a1.971,1.971,0,1,0-3.943,0v.1a5.939,5.939,0,0,0-4.307,5.581,6.1,6.1,0,0,0,6.278,5.88,1.971,1.971,0,1,1-2.335,1.937,1.971,1.971,0,0,0-3.943,0,5.939,5.939,0,0,0,4.309,5.582,1.97,1.97,0,0,0,3.938,0,5.939,5.939,0,0,0,4.309-5.582A6.1,6.1,0,0,0,184.41,161.291Z" transform="translate(-178.132 -151.698)" fill="rgba(241,223,223,0.02)"/>
      </g>
    </g>
    <g id="Group_82" data-name="Group 82" transform="translate(28.96 39.256)">
      <g id="Group_81" data-name="Group 81">
        <path id="Path_110" data-name="Path 110" d="M145.676,200.938a1.97,1.97,0,1,0,.578,1.394A1.983,1.983,0,0,0,145.676,200.938Z" transform="translate(-142.311 -200.36)" fill="rgba(241,223,223,0.02)"/>
      </g>
    </g>
    <g id="Group_84" data-name="Group 84" transform="translate(52.428 39.256)">
      <g id="Group_83" data-name="Group 83">
        <path id="Path_111" data-name="Path 111" d="M261.01,200.938a1.97,1.97,0,1,0,.578,1.394A1.987,1.987,0,0,0,261.01,200.938Z" transform="translate(-257.645 -200.36)" fill="rgba(241,223,223,0.02)"/>
      </g>
    </g>
  </g>
  <text id="Wephco_is_dedicated_to_delivering_effective_efficient_" data-name="Wephco is dedicated to delivering effective, efficient," transform="translate(164.537 102)" fill="#f6f2f2" font-size="20" font-family="HelveticaNeue, Helvetica Neue"><tspan x="0" y="0">Wephco is dedicated to delivering effective, efficient,</tspan></text>
  <text id="Respectful_public_service_with_integrity_and_" data-name="Respectful public service with integrity and " transform="translate(165.537 129)" fill="#f6f2f2" font-size="20" font-family="HelveticaNeue, Helvetica Neue"><tspan x="0" y="0">Respectful public service with integrity and </tspan></text>
  <text id="Accountability_using_both_proven_and_innovative_" data-name="Accountability using both proven and innovative " transform="translate(165.537 151)" fill="#f6f2f2" font-size="20" font-family="HelveticaNeue, Helvetica Neue"><tspan x="0" y="0">Accountability using both proven and innovative </tspan></text>
  <text id="Methodology." transform="translate(165.537 172)" fill="#f6f2f2" font-size="20" font-family="HelveticaNeue, Helvetica Neue"><tspan x="0" y="0">Methodology.</tspan></text>
</svg>
